<svg width="20" height="20" viewBox="0 0 20 20" fill="none" xmlns="http://www.w3.org/2000/svg">
<path fill-rule="evenodd" clip-rule="evenodd" d="M18.2483 6.27247C16.9953 7.55786 15.4372 8.19284 14.1979 8.04944C14.1235 8.21642 14.0193 8.37285 13.8853 8.51029L13.8853 8.5103L12.1776 10.2621L18.1042 16.3417C18.7071 16.9601 18.7075 17.9624 18.1051 18.5804C17.5026 19.1983 16.5256 19.1979 15.9227 18.5795L15.9209 18.5776L9.99609 12.4999L4.07429 18.5745L4.06859 18.5804C3.46619 19.1984 2.4895 19.1984 1.8871 18.5804C1.28469 17.9625 1.28469 16.9606 1.8871 16.3426L1.88708 16.3426L7.81459 10.2621L6.10301 8.50635L6.09851 8.50176C5.96442 8.3642 5.86013 8.20765 5.78565 8.04056C4.54591 8.18355 2.98697 7.54771 1.73296 6.26133C0.716019 5.21815 0.116136 3.96927 0 2.85611L2.42702 5.34577L2.82365 4.93889L0.00519487 2.04769C0.0614475 1.60933 0.209546 1.21162 0.454733 0.88141L3.6169 4.12519L4.01354 3.71832L0.851367 0.474536C1.17327 0.223019 1.56097 0.0710953 1.9883 0.0133877L4.80679 2.90462L5.20342 2.49774L2.77637 0.00805228C3.86153 0.127178 5.07901 0.742545 6.09595 1.78574C7.34997 3.07212 7.96981 4.67129 7.83042 5.94303C7.99328 6.01942 8.14588 6.12638 8.27996 6.26391L8.27997 6.2639L9.99609 8.02431L11.7001 6.27631L11.7038 6.2725C11.8378 6.13506 11.9903 6.02819 12.1531 5.95189C12.0133 4.68058 12.6323 3.08227 13.8853 1.79688C15.6925 -0.0569741 18.1343 -0.557922 19.3391 0.67798C20.5439 1.91388 20.0555 4.41862 18.2483 6.27247Z" fill="black"/>
</svg>
