<svg width="15" height="20" viewBox="0 0 15 20" fill="none" xmlns="http://www.w3.org/2000/svg">
<path fill-rule="evenodd" clip-rule="evenodd" d="M0 1C0 0.447716 0.447723 0 1 0H14C14.5523 0 15 0.447716 15 1V19C15 19.5523 14.5523 20 14 20H1C0.447723 20 0 19.5523 0 19V1ZM1 1.5C1 1.22385 1.22385 1 1.5 1H13.5C13.7762 1 14 1.22385 14 1.5V4.5C14 4.77615 13.7762 5 13.5 5H1.5C1.22385 5 1 4.77615 1 4.5V1.5ZM1.5 7C1.22385 7 1 7.22385 1 7.5V18.5C1 18.7761 1.22385 19 1.5 19H13.5C13.7762 19 14 18.7761 14 18.5V7.5C14 7.22385 13.7762 7 13.5 7H1.5Z" fill="white"/>
</svg>
