<svg width="20" height="20" viewBox="0 0 20 20" fill="none" xmlns="http://www.w3.org/2000/svg">
<path fill-rule="evenodd" clip-rule="evenodd" d="M10 20C15.5229 20 20 15.5229 20 10C20 4.47715 15.5229 0 10 0C4.47714 0 0 4.47715 0 10C0 15.5229 4.47714 20 10 20ZM10 19C12.3313 19 14.4556 18.1136 16.0542 16.6594C15.7175 13.9787 13.1354 11.8936 10 11.8936C6.86462 11.8936 4.28253 13.9786 3.94574 16.6593C5.54434 18.1136 7.66867 19 10 19ZM19 10C19 12.1966 18.213 14.2095 16.9057 15.7719C16.149 13.0332 13.3443 11 10 11C12.2091 11 14 9.20914 14 7C14 4.79086 12.2091 3 10 3C7.79086 3 6 4.79086 6 7C6 9.20914 7.79086 11 10 11C6.65573 11 3.85095 13.0333 3.0943 15.7719C1.78696 14.2095 1 12.1966 1 10C1 5.02943 5.02945 1 10 1C14.9706 1 19 5.02943 19 10ZM13 7C13 8.65685 11.6569 10 10 10C8.34314 10 7 8.65685 7 7C7 5.34315 8.34314 4 10 4C11.6569 4 13 5.34315 13 7Z" fill="white"/>
</svg>
