<svg width="40" height="50" viewBox="0 0 40 50" fill="none" xmlns="http://www.w3.org/2000/svg">
<path fill-rule="evenodd" clip-rule="evenodd" d="M0 7C0 3.134 3.134 0 7 0H33C36.866 0 40 3.13401 40 7V24V26V43C40 46.866 36.866 50 33 50H7C3.134 50 0 46.866 0 43V7ZM37 24H26.4142L31.0711 19.3431C31.4616 18.9526 31.4616 18.3195 31.0711 17.9289C30.6805 17.5384 30.0474 17.5384 29.6569 17.9289L23.2929 24.2929C22.9024 24.6834 22.9024 25.3166 23.2929 25.7071L29.6569 32.0711C30.0474 32.4616 30.6805 32.4616 31.0711 32.0711C31.4616 31.6805 31.4616 31.0474 31.0711 30.6569L26.4142 26H37V40C37 43.866 33.866 47 30 47H10C6.134 47 3 43.866 3 40V10C3 6.13401 6.134 3 10 3H30C33.866 3 37 6.13401 37 10V24Z" fill="white"/>
</svg>
